<?xml version="1.0" encoding="UTF-8" standalone="no"?>
<!DOCTYPE svg PUBLIC "-//W3C//DTD SVG 1.1//EN"
 "http://www.w3.org/Graphics/SVG/1.1/DTD/svg11.dtd">
<!-- Generated by graphviz version 2.40.1 (20161225.0304)
 -->
<!-- Pages: 1 -->
<svg width="2016pt" height="185pt"
 viewBox="0.00 0.00 2016.00 185.00" xmlns="http://www.w3.org/2000/svg" xmlns:xlink="http://www.w3.org/1999/xlink">
<g id="graph0" class="graph" transform="scale(1 1) rotate(0) translate(4 181)">
<polygon fill="#ffffff" stroke="transparent" points="-4,4 -4,-181 2012,-181 2012,4 -4,4"/>
<text text-anchor="middle" x="1004" y="-161.8" font-family="Times,serif" font-size="14.00" fill="#000000">Organigramme de Santélibre</text>
<g id="clust1" class="cluster">
<title>cluster_2</title>
<polygon fill="none" stroke="#000000" points="8,-81 8,-146 116,-146 116,-81 8,-81"/>
<text text-anchor="middle" x="62" y="-130.8" font-family="Times,serif" font-size="14.00" fill="#000000">Sales</text>
</g>
<g id="clust2" class="cluster">
<title>cluster_3</title>
<polygon fill="none" stroke="#000000" points="128,-8 128,-146 292,-146 292,-8 128,-8"/>
<text text-anchor="middle" x="210" y="-130.8" font-family="Times,serif" font-size="14.00" fill="#000000">log</text>
</g>
<g id="clust3" class="cluster">
<title>cluster_1</title>
<polygon fill="none" stroke="#000000" points="304,-81 304,-146 466,-146 466,-81 304,-81"/>
<text text-anchor="middle" x="385" y="-130.8" font-family="Times,serif" font-size="14.00" fill="#000000">Administration</text>
</g>
<g id="clust4" class="cluster">
<title>cluster_0</title>
<polygon fill="none" stroke="#000000" points="478,-81 478,-146 1750,-146 1750,-81 478,-81"/>
<text text-anchor="middle" x="1114" y="-130.8" font-family="Times,serif" font-size="14.00" fill="#000000">Sans Département</text>
</g>
<g id="clust5" class="cluster">
<title>cluster_4</title>
<polygon fill="none" stroke="#000000" points="1795,-8 1795,-73 1967,-73 1967,-8 1795,-8"/>
<text text-anchor="middle" x="1881" y="-57.8" font-family="Times,serif" font-size="14.00" fill="#000000">r&amp;d masques</text>
</g>
<g id="clust6" class="cluster">
<title>cluster_6</title>
<polygon fill="none" stroke="#000000" points="1762,-81 1762,-146 2000,-146 2000,-81 1762,-81"/>
<text text-anchor="middle" x="1881" y="-130.8" font-family="Times,serif" font-size="14.00" fill="#000000">R&amp;D</text>
</g>
<!-- head2 -->
<!-- 1 -->
<g id="node2" class="node">
<title>1</title>
<path fill="#64a9f6" stroke="#000000" d="M277,-120C277,-120 143,-120 143,-120 137,-120 131,-114 131,-108 131,-108 131,-96 131,-96 131,-90 137,-84 143,-84 143,-84 277,-84 277,-84 283,-84 289,-90 289,-96 289,-96 289,-108 289,-108 289,-114 283,-120 277,-120"/>
<text text-anchor="middle" x="210" y="-98.3" font-family="Times,serif" font-size="14.00" fill="#000000">Mathieu Benoit</text>
</g>
<!-- 14 -->
<g id="node3" class="node">
<title>14</title>
<path fill="#64a9f6" stroke="#000000" d="M270.5,-47C270.5,-47 149.5,-47 149.5,-47 143.5,-47 137.5,-41 137.5,-35 137.5,-35 137.5,-23 137.5,-23 137.5,-17 143.5,-11 149.5,-11 149.5,-11 270.5,-11 270.5,-11 276.5,-11 282.5,-17 282.5,-23 282.5,-23 282.5,-35 282.5,-35 282.5,-41 276.5,-47 270.5,-47"/>
<text text-anchor="middle" x="210" y="-25.3" font-family="Times,serif" font-size="14.00" fill="#000000">Hugo Delage</text>
</g>
<!-- 1&#45;&gt;14 -->
<g id="edge2" class="edge">
<title>1&#45;&gt;14</title>
<path fill="none" stroke="#000000" d="M210,-83.9551C210,-75.8828 210,-66.1764 210,-57.1817"/>
<polygon fill="#000000" stroke="#000000" points="213.5001,-57.0903 210,-47.0904 206.5001,-57.0904 213.5001,-57.0903"/>
</g>
<!-- head1 -->
<!-- head0 -->
<!-- 9 -->
<g id="node6" class="node">
<title>9</title>
<path fill="#64a9f6" stroke="#000000" d="M1681.5,-120C1681.5,-120 1536.5,-120 1536.5,-120 1530.5,-120 1524.5,-114 1524.5,-108 1524.5,-108 1524.5,-96 1524.5,-96 1524.5,-90 1530.5,-84 1536.5,-84 1536.5,-84 1681.5,-84 1681.5,-84 1687.5,-84 1693.5,-90 1693.5,-96 1693.5,-96 1693.5,-108 1693.5,-108 1693.5,-114 1687.5,-120 1681.5,-120"/>
<text text-anchor="middle" x="1609" y="-98.3" font-family="Times,serif" font-size="14.00" fill="#000000">Alexandre Benoit</text>
</g>
<!-- 10 -->
<g id="node7" class="node">
<title>10</title>
<path fill="#64a9f6" stroke="#000000" d="M1494.5,-120C1494.5,-120 1331.5,-120 1331.5,-120 1325.5,-120 1319.5,-114 1319.5,-108 1319.5,-108 1319.5,-96 1319.5,-96 1319.5,-90 1325.5,-84 1331.5,-84 1331.5,-84 1494.5,-84 1494.5,-84 1500.5,-84 1506.5,-90 1506.5,-96 1506.5,-96 1506.5,-108 1506.5,-108 1506.5,-114 1500.5,-120 1494.5,-120"/>
<text text-anchor="middle" x="1413" y="-98.3" font-family="Times,serif" font-size="14.00" fill="#000000">Alexandre Chartrand</text>
</g>
<!-- 12 -->
<g id="node8" class="node">
<title>12</title>
<path fill="#64a9f6" stroke="#000000" d="M1289.5,-120C1289.5,-120 1130.5,-120 1130.5,-120 1124.5,-120 1118.5,-114 1118.5,-108 1118.5,-108 1118.5,-96 1118.5,-96 1118.5,-90 1124.5,-84 1130.5,-84 1130.5,-84 1289.5,-84 1289.5,-84 1295.5,-84 1301.5,-90 1301.5,-96 1301.5,-96 1301.5,-108 1301.5,-108 1301.5,-114 1295.5,-120 1289.5,-120"/>
<text text-anchor="middle" x="1210" y="-98.3" font-family="Times,serif" font-size="14.00" fill="#000000">Félix&#45;Antoine Lebel</text>
</g>
<!-- 13 -->
<g id="node9" class="node">
<title>13</title>
<path fill="#64a9f6" stroke="#000000" d="M1088,-120C1088,-120 944,-120 944,-120 938,-120 932,-114 932,-108 932,-108 932,-96 932,-96 932,-90 938,-84 944,-84 944,-84 1088,-84 1088,-84 1094,-84 1100,-90 1100,-96 1100,-96 1100,-108 1100,-108 1100,-114 1094,-120 1088,-120"/>
<text text-anchor="middle" x="1016" y="-98.3" font-family="Times,serif" font-size="14.00" fill="#000000">Guylaine Fecteau</text>
</g>
<!-- 15 -->
<g id="node10" class="node">
<title>15</title>
<path fill="#64a9f6" stroke="#000000" d="M901.5,-120C901.5,-120 704.5,-120 704.5,-120 698.5,-120 692.5,-114 692.5,-108 692.5,-108 692.5,-96 692.5,-96 692.5,-90 698.5,-84 704.5,-84 704.5,-84 901.5,-84 901.5,-84 907.5,-84 913.5,-90 913.5,-96 913.5,-96 913.5,-108 913.5,-108 913.5,-114 907.5,-120 901.5,-120"/>
<text text-anchor="middle" x="803" y="-98.3" font-family="Times,serif" font-size="14.00" fill="#000000">João Alfredo Gama Batista</text>
</g>
<!-- 16 -->
<g id="node11" class="node">
<title>16</title>
<path fill="#64a9f6" stroke="#000000" d="M663,-120C663,-120 493,-120 493,-120 487,-120 481,-114 481,-108 481,-108 481,-96 481,-96 481,-90 487,-84 493,-84 493,-84 663,-84 663,-84 669,-84 675,-90 675,-96 675,-96 675,-108 675,-108 675,-114 669,-120 663,-120"/>
<text text-anchor="middle" x="578" y="-98.3" font-family="Times,serif" font-size="14.00" fill="#000000">Marie&#45;Michèle Poulin</text>
</g>
<!-- 8 -->
<g id="node12" class="node">
<title>8</title>
<path fill="#64a9f6" stroke="#000000" d="M1952.5,-47C1952.5,-47 1809.5,-47 1809.5,-47 1803.5,-47 1797.5,-41 1797.5,-35 1797.5,-35 1797.5,-23 1797.5,-23 1797.5,-17 1803.5,-11 1809.5,-11 1809.5,-11 1952.5,-11 1952.5,-11 1958.5,-11 1964.5,-17 1964.5,-23 1964.5,-23 1964.5,-35 1964.5,-35 1964.5,-41 1958.5,-47 1952.5,-47"/>
<text text-anchor="middle" x="1881" y="-25.3" font-family="Times,serif" font-size="14.00" fill="#000000">Alessandro Scola</text>
</g>
<!-- 11 -->
<g id="node13" class="node">
<title>11</title>
<path fill="#64a9f6" stroke="#000000" d="M1985,-120C1985,-120 1777,-120 1777,-120 1771,-120 1765,-114 1765,-108 1765,-108 1765,-96 1765,-96 1765,-90 1771,-84 1777,-84 1777,-84 1985,-84 1985,-84 1991,-84 1997,-90 1997,-96 1997,-96 1997,-108 1997,-108 1997,-114 1991,-120 1985,-120"/>
<text text-anchor="middle" x="1881" y="-98.3" font-family="Times,serif" font-size="14.00" fill="#000000">Alexandre Ferrera Benevides</text>
</g>
<!-- 11&#45;&gt;8 -->
<g id="edge1" class="edge">
<title>11&#45;&gt;8</title>
<path fill="none" stroke="#000000" d="M1881,-81C1881,-78.999 1881,-76.998 1881,-74.9969"/>
<polygon fill="#000000" stroke="#000000" points="1884.5005,-82.9957 1881,-72.9959 1877.5005,-82.9961 1884.5005,-82.9957"/>
</g>
</g>
</svg>
